#!OML:ASF H:\Dans Jumps\Project 1\Capture day 1\Session 1\subject.ASF
:FULLY-SPECIFIED
:DEGREES
200
root 0.212584 12.0489 -17.0245 20.9458 0.524074 -0.398682
lowerback 39.8743 0.388025 -0.321616
upperback 10.9901 0.582865 2.17083
thorax -7.10626 0.204669 2.2449
lowerneck -21.0998 0.28608 -2.27567
upperneck 3.81674 1.17084 -1.97448
head 4.47253 0.398919 -0.150147
rclavicle -7.55382e-015 -5.46658e-015
rhumerus -73.7683 -14.8854 -45.0932
rradius 22.498
rwrist 35.1068
rhand -18.0701 -19.7859
rfingers 7.12502
rthumb 8.20268 -49.6067
lclavicle -7.55382e-015 -5.46658e-015
lhumerus -64.6479 7.3909 65.366
lradius 14.3776
lwrist 11.2079
lhand -28.6749 -10.4986
lfingers 7.12502
lthumb -2.03777 19.4714
rfemur -90.5307 -4.55932 21.7868
rtibia 102.642
rfoot -30.9499 -10.3633
rtoes -2.66982
lfemur -90.242 5.89234 -24.2435
ltibia 101.379
lfoot -28.1115 13.6387
ltoes -5.58521
201
root 0.206836 11.9828 -17.0446 20.7659 0.514954 -0.443338
lowerback 40.6441 0.392829 -0.292056
upperback 10.9722 0.600744 2.15289
thorax -7.36419 0.212503 2.20333
lowerneck -21.2784 0.281407 -2.28633
upperneck 3.57572 1.16824 -1.98347
head 4.4228 0.399878 -0.151704
rclavicle 7.15625e-015 3.37934e-015
rhumerus -74.8709 -14.5368 -44.4625
rradius 22.2786
rwrist 35.2823
rhand -17.945 -19.7991
rfingers 7.12502
rthumb 8.32339 -49.6151
lclavicle 7.15625e-015 3.37934e-015
lhumerus -65.9502 7.53365 64.307
lradius 13.9911
lwrist 10.5042
lhand -28.3958 -10.2861
lfingers 7.12502
lthumb -1.76816 19.6863
rfemur -90.8593 -4.5886 21.9257
rtibia 103.212
rfoot -31.0471 -10.3903
rtoes -2.54354
lfemur -90.5816 5.96324 -24.2048
ltibia 101.98
lfoot -28.1985 13.6816
ltoes -5.49234
202
root 0.200903 11.917 -17.0651 20.5998 0.501721 -0.488693
lowerback 41.4085 0.404535 -0.268186
upperback 10.9464 0.625606 2.14081
thorax -7.62432 0.223218 2.16814
lowerneck -21.4591 0.272713 -2.30321
upperneck 3.33672 1.16346 -2.00752
head 4.37404 0.398568 -0.157248
rclavicle 1.98785e-015 -6.26172e-015
rhumerus -75.9734 -14.1902 -43.7891
rradius 22.0302
rwrist 35.525
rhand -17.8199 -19.8446
rfingers 7.12502
rthumb 8.44411 -49.6558
lclavicle 1.98785e-015 -6.26172e-015
lhumerus -67.2623 7.59848 63.2967
lradius 13.6243
lwrist 9.80873
lhand -28.0721 -9.96568
lfingers 7.12502
lthumb -1.45552 20.0091
rfemur -91.2036 -4.60327 22.0668
rtibia 103.773
rfoot -31.132 -10.448
rtoes -2.42044
lfemur -90.9371 6.03807 -24.1683
ltibia 102.573
lfoot -28.2828 13.719
ltoes -5.35852
203
root 0.194751 11.8513 -17.0867 20.4591 0.498205 -0.532592
lowerback 42.1641 0.414787 -0.243646
upperback 10.9056 0.65042 2.13629
thorax -7.89348 0.233729 2.14065
lowerneck -21.6338 0.261482 -2.32977
upperneck 3.09101 1.15843 -2.042
head 4.32221 0.396451 -0.164599
rclavicle -3.97569e-016 -9.24349e-015
rhumerus -77.0673 -13.8287 -43.0854
rradius 21.7582
rwrist 35.8534
rhand -17.6884 -19.9211
rfingers 7.12502
rthumb 8.57103 -49.7271
lclavicle -3.97569e-016 -9.24349e-015
lhumerus -68.5764 7.57312 62.3873
lradius 13.286
lwrist 9.18068
lhand -27.7256 -9.55765
lfingers 7.12502
lthumb -1.12088 20.4191
rfemur -91.5892 -4.61484 22.2115
rtibia 104.302
rfoot -31.1698 -10.5215
rtoes -2.28909
lfemur -91.3338 6.10455 -24.1356
ltibia 103.131
lfoot -28.325 13.7382
ltoes -5.18921
